<svg xmlns="http://www.w3.org/2000/svg" xmlns:xlink="http://www.w3.org/1999/xlink" id="Layer_2" data-name="Layer 2" viewBox="0 0 45.06 45.11"><defs><style>.cls-1{fill-rule:evenodd;fill:url(#linear-gradient);}.cls-2{isolation:isolate;}.cls-3{fill:#07c;}</style><linearGradient id="linear-gradient" x1="-650.76" y1="466.26" x2="-650.09" y2="465.42" gradientTransform="matrix(40, 0, 0, -37.02, 26039.02, 17274.11)" gradientUnits="userSpaceOnUse"><stop offset="0" stop-color="#008df2"/><stop offset="1" stop-color="#0078cd"/></linearGradient></defs><path id="logo" class="cls-1" d="M31.46,18.36h-.05a8,8,0,0,0-4.17.95h0c-1.73.87-4.23,3.73-6.13,6.92C19,29.35,14.88,37.41,11.31,38h-.8a5.1,5.1,0,0,1-5.08-5.11h0c0-2.71,5.28-10.57,6.77-13.15L18,9.64l.05-.1a5.11,5.11,0,0,1,9.28,0l0,.1L31.55,17a9.16,9.16,0,0,1,3.77,1L29.8,8.35a7.88,7.88,0,0,0-14.3,0L9.8,18.29c-2,3.42-7.15,10.84-7.15,14.55A7.92,7.92,0,0,0,4.7,38.16h0a7.92,7.92,0,0,0,5.87,2.64c5.8,0,9.46-7.77,12.69-12.25l4.37,7.6a7.87,7.87,0,0,0,12.62,2.36v0a7.89,7.89,0,0,0,2.42-5.71c0-2.69-2.63-7.08-4.09-9.51a8.43,8.43,0,0,0-2.92-3.58l0,0,0,0-.05,0h0l0,0A8,8,0,0,0,31.46,18.36Zm8,16.4a4.86,4.86,0,0,0,.37-1.92c0-1.88-2.52-6-3.66-8-1.48-2.5-2.6-4-5.94-3.62h0c-3.09.46-5.4,3.74-4.1,6.8l1.44,2.52.27.44,0,0,2.24,3.9.05.11a5.12,5.12,0,0,0,9.28,0l.05-.11Z"/></svg>